<?xml version="1.0" encoding="utf-8"?>
<!-- Generator: Adobe Illustrator 17.1.0, SVG Export Plug-In . SVG Version: 6.00 Build 0)  -->
<!DOCTYPE svg PUBLIC "-//W3C//DTD SVG 1.1//EN" "http://www.w3.org/Graphics/SVG/1.1/DTD/svg11.dtd">
<svg version="1.1" id="Layer_1" xmlns="http://www.w3.org/2000/svg" xmlns:xlink="http://www.w3.org/1999/xlink" x="0px" y="0px"
	 viewBox="0 0 42 42" enable-background="new 0 0 42 42" xml:space="preserve">
<g>
	<path fill="#fff" d="M21,1C10,1,1,10,1,21s9,20,20,20c11,0,20-9,20-20S32,1,21,1z M21,39c-9.9,0-18-8.1-18-18
		c0-9.9,8.1-18,18-18c9.9,0,18,8.1,18,18C39,30.9,30.9,39,21,39z"/>
</g>
<path fill-rule="evenodd" clip-rule="evenodd" fill="#fff" d="M25,16.4l1.4,1.4l-8.9,8.9l-1.4-1.4L25,16.4z"/>
<path fill-rule="evenodd" clip-rule="evenodd" fill="#fff" d="M26.2,25.3l-1.4,1.4l-8.9-8.9l1.4-1.4L26.2,25.3z"/>
</svg>
